# xmcd
# Track frame offsets:
# 187
# 16817
# 28345
# 36985
# 50642
# 74992
# 90180
# 109915
# 126070
# 136800
# 145195
# 154562
#
# Disc length: 2260 seconds
# Revision: 0
# Processed by: cddbd v1.4PL0 Copyright (c) Steve Scherf et al.
# Submitted via: VisiTrax 2.9.5.180 - For more info visit www.synapsa.com
#
DISCID=a508d20c
DTITLE=Faron Young - Live in Branson, Mo, USA
DYEAR=1993
DGENRE=
TTITLE0=Wine me up
TTITLE1=Sweet dreams
TTITLE2=Live fast, love hard, die young
TTITLE3=This little girl of mine
TTITLE4=Leavin' and sayin' goodbye
TTITLE5=Funny how times slips away
TTITLE6=I miss you already
TTITLE7=After the lovin'
TTITLE8=Goin' steady
TTITLE9=Alone with you
TTITLE10=Hello walls
TTITLE11=It's four in the morning
EXTD=
EXTT0=
EXTT1=
EXTT2=
EXTT3=
EXTT4=
EXTT5=
EXTT6=
EXTT7=
EXTT8=
EXTT9=
EXTT10=
EXTT11=
PLAYORDER=
